<?xml version="1.0" standalone="no"?>
<!DOCTYPE svg PUBLIC "-//W3C//DTD SVG 20010904//EN"
 "http://www.w3.org/TR/2001/REC-SVG-20010904/DTD/svg10.dtd">
<svg version="1.0" xmlns="http://www.w3.org/2000/svg"
 width="300.000000pt" height="300.000000pt" viewBox="0 0 300.000000 300.000000"
 preserveAspectRatio="xMidYMid meet">
<metadata>
Created by potrace 1.10, written by Peter Selinger 2001-2011
</metadata>
<g transform="translate(0.000000,300.000000) scale(0.100000,-0.100000)"
fill="#ffffff" stroke="none">
<path d="M1980 2809 c-22 -28 -59 -78 -82 -111 -47 -67 -41 -65 -158 -33 -39
11 -104 15 -235 15 -154 0 -195 -4 -286 -24 -210 -48 -341 -101 -496 -202
-105 -68 -244 -209 -275 -279 l-23 -52 -45 23 c-67 35 -154 54 -243 54 -109 0
-117 -6 -117 -83 1 -80 23 -129 89 -190 64 -60 126 -88 206 -95 l62 -4 -8 -42
c-4 -22 -11 -97 -14 -166 -9 -160 29 -487 80 -690 30 -119 162 -499 214 -614
28 -64 103 -149 158 -178 60 -33 173 -53 239 -43 39 5 57 15 87 47 l37 39 35
-21 c22 -14 59 -23 104 -27 87 -7 146 12 190 63 17 19 33 34 37 34 3 0 22 -14
42 -31 101 -89 252 -91 321 -3 22 28 22 28 49 11 96 -63 186 -79 258 -48 63
28 88 53 108 104 l16 42 74 -3 c42 -2 91 1 113 8 66 21 113 79 113 139 0 28 1
29 39 24 74 -10 139 42 194 157 18 37 21 62 21 145 0 92 -5 113 -54 269 -58
188 -94 281 -135 351 l-27 46 30 67 c42 93 52 135 52 224 0 118 -16 176 -60
221 -58 57 -98 51 -180 -29 l-45 -43 -82 162 c-60 118 -110 198 -182 294
l-100 133 34 50 c40 59 50 101 42 175 -10 98 -62 165 -126 165 -25 0 -38 -10
-71 -51z"/>
</g>
</svg>
