<?xml version="1.0" standalone="no"?>
<!DOCTYPE svg PUBLIC "-//W3C//DTD SVG 20010904//EN"
 "http://www.w3.org/TR/2001/REC-SVG-20010904/DTD/svg10.dtd">
<svg version="1.0" xmlns="http://www.w3.org/2000/svg"
 width="210.000000pt" height="210.000000pt" viewBox="0 0 210.000000 210.000000"
 preserveAspectRatio="xMidYMid meet">
<metadata>
Created by potrace 1.10, written by Peter Selinger 2001-2011
</metadata>
<g transform="translate(0.000000,210.000000) scale(0.100000,-0.100000)"
fill="#ffffff" stroke="none">
<path d="M780 1975 l0 -85 165 0 165 0 0 -80 0 -80 -85 0 -85 0 0 -80 0 -79
-77 -3 -78 -3 -3 -82 -3 -83 86 0 85 0 0 -86 0 -87 61 7 c34 3 109 6 166 6
l103 0 -2 328 -3 327 -82 3 -83 3 0 79 0 80 -165 0 -165 0 0 -85z m330 -495
l0 -80 -80 0 -80 0 0 80 0 80 80 0 80 0 0 -80z"/>
<path d="M330 1893 c-123 -13 -226 -26 -229 -28 -4 -5 65 -716 76 -783 l6 -33
76 6 c42 4 79 10 82 14 3 3 -1 76 -10 163 l-17 156 29 6 c16 3 44 6 61 6 51 0
77 11 72 29 -2 9 -7 45 -11 82 l-6 65 -76 -9 c-41 -5 -79 -5 -83 0 -4 4 -10
41 -14 81 -5 58 -3 72 8 72 30 0 298 30 305 34 4 3 4 35 0 73 -5 37 -8 74 -8
81 -1 6 -9 11 -18 11 -10 -1 -119 -12 -243 -26z"/>
<path d="M1630 1818 c-80 -6 -147 -12 -149 -14 -4 -3 24 -458 36 -588 l6 -68
78 4 c44 3 81 7 83 9 3 2 -2 96 -9 209 -8 113 -15 221 -15 241 l0 36 81 8 82
7 -7 60 c-3 34 -6 72 -6 84 0 17 -5 24 -17 22 -10 0 -83 -5 -163 -10z"/>
<path d="M1823 1654 c-6 -16 13 -374 23 -446 6 -37 7 -38 47 -37 23 0 60 4 82
7 l40 7 -16 240 c-9 132 -17 241 -18 243 0 1 -35 2 -76 2 -60 0 -77 -3 -82
-16z"/>
<path d="M1590 944 c-8 -1 -68 -8 -134 -15 l-119 -12 7 -80 c4 -45 8 -82 10
-84 1 -2 73 4 160 13 86 9 159 14 161 12 3 -3 8 -39 11 -80 l7 -75 -82 -7 -81
-7 5 -37 c2 -20 7 -58 10 -85 l6 -47 57 6 c31 3 67 7 79 10 24 4 25 0 37 -107
6 -52 -2 -58 -74 -59 -19 0 -46 -3 -59 -7 -23 -6 -23 -8 -17 -82 4 -41 9 -77
11 -80 7 -6 302 21 316 29 9 6 4 78 -20 312 -17 167 -31 312 -31 322 0 17 -6
18 -84 12 l-84 -7 -7 81 -7 80 -32 -1 c-17 -1 -38 -3 -46 -5z"/>
<path d="M206 903 c-3 -21 -6 -58 -6 -82 l0 -43 -85 7 -85 7 0 -34 c0 -18 -3
-56 -6 -84 l-6 -51 77 -6 c43 -4 81 -9 83 -12 3 -3 -3 -111 -13 -240 -9 -130
-15 -238 -12 -241 5 -6 212 -24 278 -24 l47 0 7 76 c4 41 4 78 0 82 -3 4 -40
8 -82 10 l-76 4 7 87 c3 47 9 120 12 162 l6 75 83 -4 82 -4 5 78 c3 44 4 81 1
84 -2 3 -38 6 -79 8 l-76 4 3 82 4 81 -45 7 c-25 3 -61 7 -81 7 -34 1 -37 -1
-43 -36z"/>
<path d="M915 876 c-8 -25 -26 -149 -22 -152 8 -8 158 -31 161 -25 6 10 28
152 25 156 -2 2 -39 10 -82 18 -58 11 -79 12 -82 3z"/>
<path d="M860 555 c0 -2 -18 -111 -41 -241 -22 -130 -39 -237 -37 -239 5 -4
320 -56 323 -53 4 4 25 132 25 150 0 10 -21 18 -77 26 -42 7 -78 13 -79 15 -1
1 11 73 26 160 19 112 24 160 16 162 -16 6 -127 25 -143 25 -7 0 -13 -2 -13
-5z"/>
<path d="M1421 433 l-33 -4 7 -82 c4 -45 8 -83 10 -85 4 -4 156 15 161 20 2 3
0 38 -4 79 l-7 74 -50 1 c-27 1 -65 -1 -84 -3z"/>
</g>
</svg>
