 <svg  version="1.0" xmlns="http://www.w3.org/2000/svg"  width="300.000000pt" height="322.000000pt" viewBox="0 0 300.000000 322.000000"  preserveAspectRatio="xMidYMid meet">  <g transform="translate(0.000000,322.000000) scale(0.100000,-0.100000)" fill="#ffffff" stroke="none"> <path d="M1220 3209 c-362 -20 -664 -85 -806 -170 -185 -112 -333 -347 -390 -619 -35 -167 -28 -962 12 -1273 67 -533 251 -856 569 -1003 154 -71 438 -128 700 -140 250 -11 539 32 718 108 l47 20 0 62 c0 33 -3 92 -7 129 -6 68 -6 69 -32 63 -267 -58 -408 -71 -616 -56 -249 17 -363 56 -454 156 -59 65 -91 144 -98 247 -3 42 -3 77 1 77 4 0 57 -9 119 -20 221 -39 335 -51 562 -56 350 -9 693 31 883 102 148 56 268 129 365 222 118 114 143 171 171 387 27 202 38 438 34 691 -5 229 -7 257 -31 347 -83 312 -258 525 -500 612 -272 97 -763 142 -1247 114z m-24 -560 c112 -34 189 -107 279 -262 l28 -48 45 75 c93 159 197 235 350 256 216 30 410 -67 503 -252 61 -121 63 -145 64 -673 l0 -480 -167 -3 -168 -2 0 437 c0 262 -5 456 -11 483 -24 107 -93 160 -209 160 -108 0 -167 -38 -212 -135 -22 -48 -23 -62 -26 -338 l-4 -287 -166 2 -167 3 -5 295 -5 295 -28 52 c-38 73 -90 106 -173 111 -91 6 -130 -4 -175 -45 -67 -61 -69 -74 -69 -585 l0 -448 -171 0 -170 0 3 503 c4 450 6 508 22 557 47 145 131 247 250 305 115 57 247 65 382 24z"/> </g> </svg> 