<?xml version="1.0" standalone="no"?>
<!DOCTYPE svg PUBLIC "-//W3C//DTD SVG 20010904//EN"
 "http://www.w3.org/TR/2001/REC-SVG-20010904/DTD/svg10.dtd">
<svg version="1.0" xmlns="http://www.w3.org/2000/svg"
 width="300.000000pt" height="300.000000pt" viewBox="0 0 300.000000 300.000000"
 preserveAspectRatio="xMidYMid meet">
<metadata>
Created by potrace 1.10, written by Peter Selinger 2001-2011
</metadata>
<g transform="translate(0.000000,300.000000) scale(0.100000,-0.100000)"
fill="#ffffff" stroke="none">
<path d="M2088 2985 c-104 -28 -189 -102 -236 -204 -38 -80 -37 -192 0 -273
70 -151 231 -240 381 -209 81 17 130 43 186 99 139 139 139 354 0 493 -93 94
-211 127 -331 94z"/>
<path d="M1609 2437 c-20 -8 -52 -23 -70 -35 -57 -35 -852 -841 -899 -911
-102 -152 -149 -298 -157 -484 -8 -177 16 -307 83 -452 112 -242 361 -444 631
-512 105 -27 352 -24 458 5 90 25 222 85 292 133 142 98 283 276 342 430 49
128 63 207 63 354 -1 158 -28 277 -92 406 -115 228 -235 333 -380 333 -160 0
-280 -120 -280 -281 0 -82 21 -132 84 -206 56 -67 81 -117 96 -194 31 -158
-51 -323 -198 -395 -62 -31 -73 -33 -167 -33 -89 1 -106 4 -159 29 -76 37
-140 101 -174 174 -24 50 -27 69 -27 162 0 168 -14 150 467 632 455 455 452
452 453 573 0 117 -55 204 -165 260 -45 23 -154 30 -201 12z"/>
</g>
</svg>
