<?xml version="1.0" standalone="no"?>
<!DOCTYPE svg PUBLIC "-//W3C//DTD SVG 20010904//EN"
 "http://www.w3.org/TR/2001/REC-SVG-20010904/DTD/svg10.dtd">
<svg version="1.0" xmlns="http://www.w3.org/2000/svg"
 width="300.000000pt" height="300.000000pt" viewBox="0 0 300.000000 300.000000"
 preserveAspectRatio="xMidYMid meet">
<metadata>
Created by potrace 1.10, written by Peter Selinger 2001-2011
</metadata>
<g transform="translate(0.000000,300.000000) scale(0.100000,-0.100000)"
fill="#ffffff" stroke="none">
<path d="M1465 2743 c-313 -39 -683 -192 -1015 -422 -165 -114 -350 -265 -350
-286 0 -8 34 -89 76 -180 50 -108 82 -165 92 -165 8 0 35 11 59 25 l43 26 0
87 c0 81 2 92 31 138 39 61 82 107 137 145 l42 30 0 -920 0 -920 -32 -3 c-32
-3 -33 -4 -33 -53 l0 -50 255 0 255 0 0 50 c0 49 -1 50 -32 53 l-33 3 0 215
c0 201 1 215 18 210 43 -14 320 -56 441 -67 161 -14 436 -7 566 15 284 48 481
142 651 311 86 86 107 114 151 201 79 154 98 236 97 424 -1 135 -4 168 -27
255 -120 447 -500 788 -971 870 -81 14 -335 19 -421 8z m369 -243 c361 -93
621 -416 643 -797 23 -394 -203 -706 -582 -803 -222 -57 -520 -39 -827 51
l-108 32 0 692 0 693 78 32 c146 61 289 102 437 124 70 10 282 -3 359 -24z"/>
</g>
</svg>
